<svg width="93" height="92" viewBox="0 0 93 92" fill="none" xmlns="http://www.w3.org/2000/svg">
<path id="Vector" d="M18.3055 5.63364C19.0603 7.36572 19.7403 11.9998 19.7827 15.8192C20.0776 26.2601 24.1108 39.4627 29.3648 47.2841C40.6959 63.8363 56.5232 72.0203 77.2242 71.7837C87.3395 71.668 91.2453 73.4124 92.5256 78.4748C93.7193 83.2481 91.5268 88.0118 87.0506 90.1421C85.1932 91.0337 80.1417 91.7684 75.765 91.8668C45.7472 92.2584 20.017 75.9675 7.45637 48.7434C5.00612 43.4526 2.38308 35.7461 1.59783 31.5484C0.157206 23.5866 0.0243169 8.69549 1.3125 6.16642C2.74931 3.34552 7.42992 0.584255 10.5313 0.693851C14.8089 0.790001 16.7525 2.02494 18.3055 5.63364Z" fill="#B384ED"/>
</svg>
