<svg width="92" height="111" viewBox="0 0 92 111" fill="none" xmlns="http://www.w3.org/2000/svg">
<path id="Vector" d="M21.7541 108.802C15.1897 106.619 11.2302 104.217 6.33295 99.5229C-0.648234 92.8639 -1.7944 86.9691 2.58186 81.5109C4.76999 78.7819 6.12455 78.1269 9.35465 78.1269C12.5848 78.1269 14.2519 79.0002 18.524 82.9301C24.88 88.934 29.3604 90.4623 38.2172 89.9165C51.5543 89.1524 63.9538 80.0918 69.372 67.4289C71.5602 62.0799 71.8727 60.0058 71.5601 51.9277C71.1433 40.0289 67.7049 32.4966 59.3691 24.6369C56.139 21.6894 52.2837 17.9779 50.7208 16.5588C48.741 14.703 47.8033 12.738 47.8033 10.5548C47.8033 6.6249 51.9711 1.16673 55.618 0.184261C62.9118 -1.78068 78.7497 12.3014 85.6267 26.6018C90.5239 36.8631 91.9827 44.6137 91.3575 57.3858C90.9407 66.4464 90.3156 68.848 87.0855 76.2711C80.2085 91.8815 65.2041 104.872 49.1578 109.238C41.2389 111.422 28.8395 111.203 21.7541 108.802Z" fill="#C1EB5A"/>
</svg>
