<svg width="117" height="62" viewBox="0 0 117 62" fill="none" xmlns="http://www.w3.org/2000/svg">
<path id="Vector" d="M101.754 59.5513C100.295 58.3505 97.5862 54.5298 95.8148 51.1457C90.8134 41.976 81.2273 32.0421 72.9957 27.4573C55.3865 17.8509 37.5688 17.7418 19.2302 27.3481C10.2692 32.0422 5.99717 32.2605 2.55868 28.3306C-0.671425 24.6191 -0.879812 19.3792 2.1419 15.4493C3.39226 13.8119 7.56012 10.8645 11.4154 8.79037C37.9856 -5.18254 68.3069 -2.3443 91.8554 16.2135C96.44 19.8159 102.275 25.4924 104.88 28.8765C109.777 35.3171 116.654 48.5258 116.654 51.3641C116.654 54.5298 113.737 59.1147 110.923 60.4246C107.068 62.2804 104.776 62.0621 101.754 59.5513Z" fill="#FE70A5"/>
</svg>
