<svg width="85" height="59" viewBox="0 0 85 59" fill="none" xmlns="http://www.w3.org/2000/svg">
<path id="Vector" d="M58.3679 0.823722C65.2562 1.46321 69.6568 2.90544 75.4901 6.36808C83.7982 11.2725 86.2499 16.7545 83.2239 23.0621C81.7108 26.2159 80.5399 27.1607 77.3937 27.8924C74.2476 28.6241 72.426 28.1512 67.3747 25.2912C59.8239 20.8831 55.1137 20.4095 46.6108 22.9474C33.7934 26.7129 23.7688 38.3468 21.3599 51.9079C20.4404 57.6136 20.6058 59.7045 22.7402 67.5018C25.8415 78.9969 30.8969 85.5545 40.7964 91.3216C44.6102 93.4607 49.206 96.2024 51.0498 97.2306C53.3985 98.5897 54.757 100.291 55.2516 102.418C56.1418 106.245 53.3187 112.506 49.9892 114.289C43.3301 117.855 24.7139 107.727 14.7763 95.3558C7.68184 86.4706 4.50528 79.2519 2.22097 66.6702C0.574456 57.7508 0.639329 55.27 2.10392 47.3081C5.26596 30.5458 16.9376 14.4941 31.5776 6.60614C38.7962 2.68576 50.9227 0.0895941 58.3679 0.823722Z" fill="#FE70A5"/>
</svg>
