<svg width="79" height="86" viewBox="0 0 79 86" fill="none" xmlns="http://www.w3.org/2000/svg">
<path id="Vector" d="M29.6701 83.9179C17.8959 80.7522 8.62237 72.8924 3.62092 61.8669C-0.442756 52.9155 -1.06794 39.3793 2.05797 29.882C6.01745 17.4374 13.1028 8.92269 23.9393 3.68285C28.9407 1.17209 31.0247 0.844604 40.6108 0.844604C50.5095 0.844604 52.1766 1.1721 58.1158 4.01034C66.139 7.83106 74.058 16.455 76.4545 23.8781C78.851 31.3012 78.6426 46.3657 76.1419 54.9896C73.2244 64.4868 67.5977 72.5649 60.1998 77.8048C50.6137 84.4637 39.673 86.647 29.6701 83.9179ZM50.1969 61.8669C56.1361 57.6095 59.4704 50.4048 60.1998 40.7984C60.825 31.3012 58.741 26.3888 52.5934 22.6773C40.9234 15.4725 26.0232 20.0574 20.3966 32.502C18.6252 36.4319 18.0001 47.3482 19.2504 51.7147C20.5008 55.9721 24.7729 61.3211 28.9407 63.6135C34.7758 66.9976 44.3619 66.2334 50.1969 61.8669Z" fill="#B384ED"/>
</svg>
