<svg width="80" height="86" viewBox="0 0 80 86" fill="none" xmlns="http://www.w3.org/2000/svg">
<path id="Vector" d="M25.581 83.6191C11.9312 77.8335 3.38704 66.808 0.677923 51.5251C-2.76057 31.9849 7.13815 12.1171 24.539 3.49324C30.7908 0.436667 32.5621 0.109163 41.4189 0C50.3798 0 51.9427 0.327497 58.1945 3.38407C66.8429 7.7506 72.4695 12.9905 76.429 20.4136C79.2423 25.8717 79.4507 26.9633 79.4507 38.2072C79.4507 47.9227 78.9297 51.6342 76.95 57.6382C73.9282 67.1354 65.6967 76.7418 56.6316 81.6542C51.1091 84.6016 49.0252 85.0383 40.3769 85.3657C32.4579 85.6932 29.4363 85.2566 25.581 83.6191ZM50.2756 61.8956C56.6316 57.4199 60.1743 49.1235 60.1743 39.1896C60.1743 32.2032 59.8617 30.8932 57.4652 27.8367C44.649 12.008 19.5375 22.3785 19.5375 43.6653C19.5375 61.459 36.8342 71.6112 50.2756 61.8956Z" fill="#9CE1DD"/>
</svg>
