<svg width="203" height="175" viewBox="0 0 203 175" fill="none" xmlns="http://www.w3.org/2000/svg">
<path id="Vector" d="M178.123 193.608C176.144 191.424 175.519 189.241 175.206 183.892C174.893 178.106 175.414 175.159 178.644 165.443C183.125 151.58 183.333 145.357 179.165 143.174C174.893 140.882 165.62 141.537 151.449 145.139C132.589 149.833 124.879 148.741 115.605 140.008C110.083 134.769 106.54 127.455 105.082 118.067C104.144 111.953 104.248 108.897 105.707 100.273C108.937 81.4968 108.937 80.1869 105.707 77.567C100.914 73.5279 96.9541 73.5279 81.2204 77.3486C65.1741 81.2785 59.3391 81.2785 52.1495 77.3486C41.1046 71.4538 37.041 59.7733 40.0627 42.4164C40.8962 37.2857 41.6256 31.2817 41.6256 29.0984C41.6256 19.9287 33.3941 17.9638 20.9947 24.0769C11.4086 28.8801 9.63719 29.3168 6.1987 28.116C0.259478 25.9327 -1.92863 17.9638 1.92665 12.8331C4.32318 9.55822 17.452 2.57171 23.9122 1.04343C39.0207 -2.55896 52.6705 3.33591 58.8181 16.108C61.5272 21.6754 61.944 30.8451 59.9642 40.6698C56.0048 60.6467 58.2971 62.6116 78.6155 57.0443C102.06 50.7128 118.523 55.7343 125.608 71.3447C128.734 78.1128 128.838 84.6626 126.025 96.7797C123.42 108.133 123.42 114.792 125.921 120.686C129.359 128.546 133.319 129.201 149.469 124.616C163.536 120.686 179.165 120.468 186.98 124.18C202.193 131.275 206.048 145.576 198.442 167.518C196.045 174.504 194.795 179.962 194.795 183.783C194.795 188.477 194.274 190.333 192.086 192.953C188.439 197.538 181.875 197.756 178.123 193.608Z" fill="#9CE1DD"/>
</svg>
