<svg width="89" height="91" viewBox="0 0 89 91" fill="none" xmlns="http://www.w3.org/2000/svg">
<path id="Vector" d="M0.998141 83.4416C-0.396667 79.2972 0.574784 76.2061 4.3622 72.5851C7.28165 69.794 9.63108 69.5659 31.3275 70.3021C35.9199 70.5244 40.1661 70.0688 41.034 69.239C44.1113 66.2969 42.3396 60.4946 35.2633 50.2497C27.2579 38.8748 25.5777 24.48 31.1295 15.28C36.5096 6.53234 42.972 3.81367 65.6468 1.30796C84.535 -0.89319 88.9075 0.836838 88.4729 10.3342C88.0934 18.6255 87.0094 19.2294 65.7066 21.4325C59.9445 22.0402 53.6369 23.0251 51.6475 23.6297C48.3581 24.6122 48.1934 24.9139 47.8976 28.0798C47.7221 30.2657 48.8634 33.3551 51.1912 36.8957C61.1882 52.5652 63.7174 59.9496 62.254 68.8448C60.7561 78.4938 54.2376 85.7349 44.1189 89.2103C38.4456 91.1746 7.76662 90.5211 4.47121 88.338C3.22642 87.5099 1.7419 85.3253 0.998141 83.4416Z" fill="#C1EB5A"/>
</svg>
