<svg width="142" height="119" viewBox="0 0 142 119" fill="none" xmlns="http://www.w3.org/2000/svg">
<path id="Vector" d="M42.7627 117.432C40.783 116.995 34.7396 114.484 29.3214 111.974C16.5051 105.861 9.52396 104.987 4.00153 109.026L0.0420489 111.755V99.9657C0.0420489 86.757 -0.270542 87.3028 8.0652 86.102C15.2548 85.1195 23.7989 87.1936 36.1983 92.7609C42.2418 95.49 48.181 97.6733 49.4313 97.6733C51.6195 97.6733 54.7454 94.9442 56.9335 91.1235C57.4545 90.2502 58.1839 81.1896 58.4965 70.9283C59.0174 54.6629 59.33 51.7155 61.414 47.2398C68.3952 31.957 82.6701 28.3546 102.155 36.9785C112.887 41.6725 118.097 42.1092 120.494 38.1793C123.098 34.0311 123.307 28.0271 121.015 18.5299C119.243 10.9976 119.139 9.36015 120.389 6.41274C122.89 -0.0278922 131.017 -1.66534 135.394 3.13784C138.832 6.95856 141.75 19.0757 141.75 29.1187C141.75 40.5809 139.041 47.8948 132.476 54.3354C123.515 63.0685 112.783 63.8327 96.7367 56.8462C87.4632 52.8072 81.003 51.8247 79.5442 54.3354C79.1274 54.9904 78.3981 64.051 78.0855 74.2032C77.5645 90.9052 77.2519 93.3068 74.8554 98.7649C71.6253 106.297 67.6658 111.21 62.1434 114.594C57.3503 117.541 48.5978 118.851 42.7627 117.432Z" fill="#9CE1DD"/>
</svg>
