<svg width="103" height="57" viewBox="0 0 103 57" fill="none" xmlns="http://www.w3.org/2000/svg">
<path id="Vector" d="M90.4428 56.2757C85.4414 54.9657 82.3154 48.9617 80.1273 36.1896C77.7308 21.6709 75.6468 17.9594 70.7496 19.2693C69.395 19.5968 63.9768 24.7275 58.767 30.7315C51.5774 38.9187 48.0347 42.0845 43.9711 43.9402C32.5094 49.0709 20.8393 46.0143 14.2749 36.0805C10.5239 30.2948 1.66712 7.58884 0.625155 1.14821L0 -3H9.8987H19.6932L21.5687 3.22231C24.0694 11.3004 30.0087 24.8366 31.4674 25.8191C33.6556 27.3474 39.8032 22.7625 45.8466 15.0119C55.8495 2.45817 65.3314 -2.78167 75.7511 -1.47171C85.1288 -0.38008 93.5687 8.0255 96.5905 19.2693C98.2576 25.1641 101.279 40.0104 102.113 45.6868C102.946 51.4725 96.0695 57.6948 90.4428 56.2757Z" fill="#FED878"/>
</svg>
