<svg width="159" height="182" viewBox="0 0 159 182" fill="none" xmlns="http://www.w3.org/2000/svg">
<path id="Vector" d="M5.88079 231.754C-0.996195 228.042 -2.03816 219.418 3.79686 214.943C5.46401 213.633 13.1745 211.449 24.2194 209.266C43.079 205.336 50.998 202.28 57.1456 196.603C65.1687 189.289 66.0023 181.102 61.1051 160.907C54.9575 135.908 54.3323 132.306 54.4365 116.259C54.4365 102.941 54.7491 100.212 56.8331 94.6446C62.3555 79.9076 73.192 68.0088 87.9879 60.3673C95.3859 56.4374 95.4901 56.3283 95.4901 52.1801C95.4901 38.4255 103.409 18.5577 113.412 7.20475C119.247 0.436627 119.976 0 124.144 0C127.895 0 129.146 0.54579 131.334 3.38404C135.293 8.29639 134.876 12.008 129.667 18.2303C123.311 25.9809 119.664 32.4215 117.371 40.2813C113.829 52.1801 113.62 51.8526 126.02 51.8526C134.772 51.9618 137.586 52.3984 141.858 54.3633C158.738 62.3323 163.322 81.4359 151.756 95.1905C140.711 108.399 121.539 107.963 108.515 94.0988C105.91 91.3697 102.784 86.7849 101.429 83.9466C100.179 80.9992 98.5117 78.7068 97.7823 78.5976C95.0732 78.5976 87.1543 84.2741 82.5696 89.6231C75.901 97.4828 73.6087 104.579 73.6087 117.787C73.6087 127.066 74.2338 131.214 78.5059 148.025C82.778 165.273 83.299 168.985 83.4032 179.574C83.5074 190.599 83.299 192.128 80.5899 197.804C76.2136 207.083 67.9821 215.27 57.7709 220.401C50.8939 223.894 45.2672 225.531 30.6797 228.697C20.5726 230.771 11.6117 232.736 10.8823 233.064C10.1529 233.391 7.86053 232.736 5.88079 231.754ZM136.335 82.2C139.253 79.4709 138.732 75.6502 135.085 73.6853C131.23 71.6112 118.413 71.3928 118.413 73.4669C118.413 75.7593 121.539 79.6892 125.082 81.9816C129.041 84.4924 133.73 84.6016 136.335 82.2Z" fill="#FE70A5"/>
</svg>
