<svg width="120" height="151" viewBox="0 0 120 151" fill="none" xmlns="http://www.w3.org/2000/svg">
<path id="Vector" d="M114.07 150.013C111.248 150.999 100.346 149.064 91.7698 145.893C85.7157 143.74 82.4316 141.743 74.7264 135.825C63.991 127.58 57.7687 119.911 53.5773 109.597C51.4584 104.291 50.9159 103.743 47.7936 102.79C35.4142 99.1943 31.5935 97.1796 22.301 89.3857C11.3635 80.3284 7.15547 74.3375 3.57564 63.0483C0.550078 53.3672 0.0462047 40.9242 0.541669 37.0693C0.956629 33.8408 0.699671 31.9938 2.64623 25.5475C5.06876 17.5545 7.14559 13.2374 11.7153 7.28755C17.2369 0.0981503 20.7687 -0.736705 26.4827 3.65182C31.2443 7.30892 31.574 11.8977 27.3851 17.3518C18.015 29.7311 16.5006 49.9831 24.086 64.4802C26.805 69.7216 28.196 71.3156 34.9489 76.502C39.5374 80.0261 43.8372 82.6717 45.407 82.9576L48.0502 83.2796L49.4569 74.6378C53.7116 47.9504 72.1357 31.4888 89.4499 38.8744C97.5356 42.3255 101.726 48.6973 102.634 58.9853C104.056 75.0552 94.2078 90.7458 77.4963 99.0634C73.8031 100.825 70.7737 102.44 70.6467 102.605C70.5833 102.688 71.8995 105.275 73.5851 108.278C76.1482 113.005 77.8624 114.716 86.52 121.365C96.303 128.879 96.6262 128.996 105.208 130.726C115.383 132.891 119.359 135.42 119.949 140.208C120.353 143.803 117.445 148.664 114.07 150.013ZM83.9193 62.7425C83.9005 53.2686 80.7669 53.2267 74.1317 62.5827C70.8373 67.4099 69.2854 70.685 68.3743 75.6347C67.5554 79.21 67.504 82.3236 68.2774 82.392C72.6403 82.9839 84.0069 68.722 83.9193 62.7425Z" fill="#C1EB5A"/>
</svg>
