<svg width="162" height="174" viewBox="0 0 162 174" fill="none" xmlns="http://www.w3.org/2000/svg">
<path id="Vector" d="M155.707 169.312C152.581 166.911 148.413 162.763 146.433 160.143C142.578 155.121 135.909 141.367 135.909 138.528C135.909 137.109 134.346 136.672 127.157 136.127C111.006 134.926 96.0018 127.503 83.7066 114.731C75.6834 106.216 72.0365 100.103 68.077 88.0948L65.1595 79.1434L58.0742 77.8335C54.1147 77.0693 47.0292 74.4494 42.132 71.9386C35.0466 68.2271 31.5039 65.498 24.3144 57.9657C19.4171 52.8351 13.582 45.4119 11.4981 41.4821C6.39246 32.3123 1.80785 17.7936 0.870079 7.96892L0.140625 0H10.2478H20.2507V3.92988C20.2507 14.3004 27.2319 31.5482 35.255 41.1546C40.7775 47.8135 50.1552 54.0359 58.5951 56.7649C62.3462 57.9657 65.4721 58.839 65.5763 58.7299C65.7847 58.5115 66.6182 55.455 67.6602 51.8526C70.3693 41.7004 75.3708 32.8582 82.7688 24.9984C94.1262 12.8813 108.193 8.07809 118.404 12.8813C125.385 16.047 128.928 21.6143 129.449 30.1291C129.866 36.0239 129.449 37.9888 126.844 43.8837C120.175 58.7299 106.526 70.6287 89.8542 76.3052C84.9569 77.9426 84.8527 79.4709 89.0206 88.0948C96.2101 103.159 110.589 113.421 127.365 115.604C133.825 116.368 133.929 116.368 134.45 113.639C137.785 96.0637 142.474 85.9115 152.164 75.6502C156.227 71.2837 160.083 67.6813 160.812 67.6813C161.646 67.6813 161.958 71.8295 161.958 81.4358C161.958 93.4438 161.646 95.5179 159.874 98.247C157.895 101.194 154.665 109.382 154.665 111.565C154.665 112.002 156.019 111.783 157.79 110.801C159.458 109.927 161.021 109.163 161.437 109.163C161.75 109.163 161.958 114.076 161.958 120.189V131.105L158.832 132.197C154.873 133.725 154.873 135.363 158.832 142.676C161.958 148.353 162.063 148.899 161.75 161.234L161.437 173.788L155.707 169.312ZM97.8773 49.3418C103.191 45.1936 109.86 36.0239 109.86 33.0765C109.86 30.5657 105.067 32.2032 99.4402 36.5697C95.2724 39.7355 89.3332 48.2502 87.3534 53.7084C86.8325 55.455 87.0408 55.455 89.6457 54.5817C91.3129 53.9267 95.064 51.6343 97.8773 49.3418Z" fill="#9CE1DD"/>
</svg>
