<svg xmlns="http://www.w3.org/2000/svg" width="353" height="116" viewBox="0 0 353 116" fill="none">
<path d="M210.962 114.516C206.378 113.097 198.563 105.565 196.062 100.107C194.603 96.8318 193.874 93.2295 193.874 88.6446C193.874 70.9601 206.899 53.3848 228.988 41.2677C233.781 38.6478 237.637 36.2462 237.637 35.9187C237.637 35.5912 235.969 33.2988 233.886 30.6789C225.967 21.0725 212.838 17.4701 199.084 21.2908C188.977 24.0199 179.703 28.6048 158.447 41.2677C117.289 65.8295 98.3255 72.7068 71.4427 72.3793C53.8334 72.2701 44.6641 70.0868 30.4934 62.6637C14.968 54.4765 0.0678711 38.3203 0.0678711 29.5872C0.0678711 24.7841 4.96512 19.6534 9.44559 19.6534C12.9883 19.6534 15.5932 22.055 22.887 31.6613C27.6801 37.8836 39.2459 45.6342 48.9362 48.9091C58.8349 52.2932 76.0274 53.3848 86.968 51.3107C104.577 48.0358 119.061 41.7044 147.402 24.6749C180.954 4.47967 192.207 0.00396729 210.024 0.00396729C219.923 0.00396729 227.53 1.75058 234.928 5.68046C240.554 8.73703 249.723 18.0159 253.058 24.0199C254.516 26.749 255.767 29.0414 255.975 29.2597C256.079 29.4781 261.498 28.7139 267.958 27.7314C293.382 23.8016 322.036 29.3689 342.146 42.2502C350.482 47.49 352.253 49.7824 352.253 54.804C352.253 57.8605 351.524 59.8255 349.648 61.6813C345.793 65.8295 341.521 65.2836 331.935 59.498C317.451 50.8741 302.864 46.9442 284.942 46.9442C278.586 46.9442 270.771 47.49 267.645 48.145L261.81 49.3458L262.331 56.1139C263.582 72.0518 256.079 94.2119 245.972 104.91C238.679 112.551 231.385 115.717 221.695 115.608C217.527 115.608 212.734 115.062 210.962 114.516ZM228.467 93.557C233.365 90.5004 237.011 85.2605 239.825 77.6191C242.117 71.2876 243.784 56.7689 242.325 56.7689C240.242 56.7689 227.113 65.8295 222.736 70.3052C217.735 75.3267 212.629 84.6056 212.629 88.4263C212.629 89.7362 213.776 91.9195 215.234 93.3386C218.464 96.8319 223.362 96.8318 228.467 93.557Z" fill="#FE70A5"/>
</svg>