<svg xmlns="http://www.w3.org/2000/svg" width="163" height="235" viewBox="0 0 163 235" fill="none">
<path d="M6.43882 224.922C2.14266 218.519 0.681052 214.074 0.172445 205.617C-0.620436 195.205 1.55348 187.342 7.97138 178.081C17.3799 164.249 29.7747 157.18 54.1666 151.59C84.7044 144.473 91.6046 141.489 96.6663 133.068C102.796 122.87 98.9076 111.744 82.8171 93.4109C66.5149 74.8231 61.4484 64.645 62.6867 52.2704C63.3223 46.1568 64.08 43.6828 67.2295 38.4434C79.1525 18.6085 117.233 0.359294 147.592 0.0124718C157.435 -0.183912 161.031 1.72257 162.419 7.90675C163.279 11.7351 163.074 12.8854 160.94 15.4238C157.639 19.2981 156.216 19.8442 145.678 20.3872C116.143 21.9933 80.9663 41.4786 82.3509 55.5572C82.883 60.3349 87.533 67.97 94.7101 75.8505C113.956 97.2267 120.487 110.833 119.212 127.516C118.769 133.108 118.08 134.859 113.3 142.812C108.238 151.233 107.554 151.967 99.9751 157.092C91.7019 162.563 88.3874 163.627 53.4932 172.329C43.53 174.746 38.4226 176.771 33.9834 179.706C27.0995 184.484 21.168 192.127 20.0527 197.825C18.719 205.302 21.8672 213.818 27.2255 217.038C28.565 217.844 29.5869 219.986 29.9803 222.77C30.5158 226.531 30.1088 227.815 27.8957 230.688C26.1324 232.812 23.9459 234.427 22.2225 234.665C18.0481 235.34 9.9776 230.361 6.43882 224.922Z" fill="#FED878"/>
</svg>