<svg width="87" height="170" viewBox="0 0 87 170" fill="none" xmlns="http://www.w3.org/2000/svg">
<path id="Vector" d="M12.712 168.112C10.2113 166.474 5.1057 156.649 2.39658 147.916C0.416838 141.803 0 137.982 0 128.267C0 114.731 2.29237 105.124 7.919 95.5179C10.8365 90.6056 10.9407 89.8414 9.79453 86.7849C5.10567 74.7769 4.37628 70.5195 4.89726 58.4024C5.41825 44.2112 7.60642 37.2247 14.3792 27.5092C20.2142 19.2128 29.7756 11.234 33.1346 9.27888C35.9479 7.64143 37.2562 6.31261 43.5543 3.92989C51.3691 0.982477 56.0579 0 63.5601 0C72.6252 0 75.4385 2.29244 75.4385 9.49722C75.4385 15.5012 72 18.5578 65.123 18.5578C49.5977 18.6669 32.6137 29.8016 25.7367 44.6478C23.236 49.9968 22.8191 52.0709 22.8191 60.5857C22.8191 66.3713 23.3401 71.3928 24.0694 72.812L25.424 75.1044L33.1346 70.9562C56.8915 58.0749 81.1693 62.6598 85.8582 80.89C88.0463 89.4048 85.5456 96.6096 77.9393 103.596C66.0608 114.512 47.6179 116.259 30.8422 108.072C27.1953 106.216 24.0695 104.797 23.8611 104.797C23.7569 104.797 22.5066 107.417 21.152 110.582C18.9639 115.495 18.6513 117.896 18.6513 128.813C18.6513 141.148 18.7555 141.476 22.6108 149.335C27.0912 158.723 27.5079 163.418 24.0694 166.802C21.4645 169.312 15.8379 169.967 12.712 168.112ZM63.5601 91.0422C71.0622 85.2566 69.1867 82.7458 57.7251 83.1825C51.89 83.51 48.3473 84.2741 43.8668 86.5665C40.5325 88.0948 38.0319 89.9506 38.4487 90.6056C40.6368 94.4263 58.8712 94.7538 63.5601 91.0422Z" fill="#B384ED"/>
</svg>
