<svg width="113" height="108" viewBox="0 0 113 108" fill="none" xmlns="http://www.w3.org/2000/svg">
<path id="Vector" d="M83.8374 103.024C48.4105 92.3255 6.52338 73.5494 1.52193 66.1263C-0.770398 62.7422 -0.457805 58.2666 2.35551 55.21C3.60587 53.6817 20.7983 42.3287 40.5957 29.8841C60.3931 17.4394 79.1486 5.54064 82.2745 3.5757C89.0473 -0.790837 92.59 -1.11833 96.341 2.37489C99.1544 4.88565 99.0502 4.23068 104.573 43.5295C105.51 49.861 107.594 64.8163 109.366 76.7151C111.033 88.7231 112.492 99.4211 112.492 100.513C112.492 101.714 111.345 103.788 109.887 105.207C106.344 109.027 102.384 108.7 83.8374 103.024ZM91.6522 82.61C91.7564 78.1343 84.15 27.7008 83.3164 26.7183C82.2745 25.6267 29.2383 58.8124 29.1341 60.6681C29.1341 61.3231 30.3845 62.4147 32.0516 62.9605C33.6146 63.6155 39.3454 66.2355 44.7636 68.7462C55.0791 73.4402 86.6507 84.9024 89.8808 84.9024C91.027 85.0116 91.6522 84.1382 91.6522 82.61Z" fill="#FED878"/>
</svg>
