<svg width="106" height="121" viewBox="0 0 106 121" fill="none" xmlns="http://www.w3.org/2000/svg">
<path id="Vector" d="M1.84116 75.2681C0.595529 72.0294 0.657587 70.3371 1.97315 67.8222C3.74409 64.4367 19.1718 50.4547 35.1687 37.6327C53.8748 22.7786 88.4067 1.04961 94.6928 0.272384C99.4663 -0.31057 104.157 2.63606 104.948 6.74533C105.347 8.67909 104.862 20.6217 103.88 33.2899C102.805 45.9098 101.224 68.4901 100.153 83.5758C99.0198 100.354 97.6025 112.055 96.6411 113.893C95.6291 115.828 93.5838 117.714 91.3893 118.538L87.849 120.135L69.5832 111.443C59.5018 106.662 40.5479 97.4866 27.3273 91.0637L3.4295 79.4253L1.84116 75.2681ZM57.0445 82.5854C68.9308 88.1871 78.8364 92.6295 79.1223 92.5326C79.5511 92.3873 83.837 39.6837 84.0791 31.8025C84.1829 30.2553 83.9503 28.9016 83.581 28.7084C82.4731 28.1289 42.0556 56.3885 40.8919 58.6132C40.7401 58.9034 37.9712 61.2742 34.6813 63.7419C31.4837 66.2579 28.7238 68.3869 28.6226 68.5804C28.3696 69.064 33.4565 71.4786 57.0445 82.5854Z" fill="#C1EB5A"/>
</svg>
