<svg width="222" height="117" viewBox="0 0 222 117" fill="none" xmlns="http://www.w3.org/2000/svg">
<path id="Vector" d="M29.2451 103.9C3.5085 90.6 2.25814 90.2 1.94555 95C1.94555 95.8 1.32036 98.3 0.48679 100.5C-0.763572 104.1 -0.867768 102.9 -0.971965 86.8C-1.07616 70.4 -0.971965 69 0.799381 69C1.84135 69 13.0946 74.4 25.9108 81C38.727 87.7 49.4593 92.8 49.7719 92.5C50.0845 92.2 52.1684 79.6 54.2523 64.5C56.7531 46.3 58.6286 36.2 59.7748 34.5C60.8167 33 62.9007 31.8 65.2972 31.4C68.7357 30.8 71.549 31.9 95.7227 43.6C110.414 50.7 122.605 56.6 122.918 56.8C123.231 56.9 124.377 50.4 125.315 42.3C127.086 28.3 130.212 10.7 132.4 2.8L133.442 -1H151.468H169.494L194.293 11.5C207.943 18.3 219.508 24.5 220.029 25.2C224.302 31.6 220.238 40 212.736 40C210.235 40 200.857 35.8 180.122 25.4C164.076 17.3 150.739 10.9 150.634 11.1C149.905 11.8 145.946 32.5 144.799 41C144.174 45.7 143.341 55.5 142.82 62.8C142.09 74.6 141.673 76.4 139.59 78.5C135.213 83 132.296 82.7 120.522 76.7C114.686 73.7 102.079 67.4 92.5968 62.6L75.1959 54L74.4665 58.7C74.0497 61.4 72.1742 74.5 70.2987 87.9C67.0686 111.4 66.8602 112.5 64.151 114.7C59.1496 118.8 56.5447 118 29.2451 103.9Z" fill="#FE70A5"/>
</svg>
