<svg width="150" height="154" viewBox="0 0 150 154" fill="none" xmlns="http://www.w3.org/2000/svg">
<path id="Vector" d="M122.535 152.316C121.181 151.552 119.097 149.587 117.951 147.95L115.867 145.002L119.618 127.209C124.619 103.629 127.85 85.0716 127.433 82.7792C127.12 80.9234 126.391 81.0326 116.7 83.4342C101.696 87.1458 71.6874 92.4948 66.0608 92.4948C62.3097 92.4948 60.7468 91.949 58.767 89.6565C55.7453 86.2725 55.6411 86.5999 59.9132 50.1394C61.6845 34.3107 63.0391 21.2111 62.8307 20.9928C62.6223 20.7744 51.2648 22.7394 37.615 25.4684C23.861 28.0884 10.9407 30.2717 8.85673 30.2717C3.64689 30.2717 0 26.2326 0 20.3378C0 12.5872 1.25037 12.0414 31.4674 6.03738C64.7062 -0.621583 71.6874 -1.27656 76.1678 1.67085C77.9392 2.87164 80.2315 5.70988 81.2735 8.00231C83.3575 12.6963 83.2533 16.1896 79.398 50.2485C77.5224 66.623 77.314 70.6621 78.356 70.6621C81.4819 70.6621 112.428 63.894 125.453 60.2916C133.164 58.2175 140.249 56.4709 141.291 56.4709C142.333 56.4709 144.521 57.7808 146.292 59.3091C150.252 62.8023 150.356 65.2039 147.438 83.325C145.042 98.0621 138.79 131.357 136.602 140.963C134.414 150.57 128.37 155.482 122.535 152.316Z" fill="#FED878"/>
</svg>
