<svg width="252" height="180" viewBox="0 0 252 180" fill="none" xmlns="http://www.w3.org/2000/svg">
<path id="Vector" d="M4.02596 177.822C2.8798 177.167 1.42105 174.984 0.587479 172.91C-0.767079 169.417 -0.350343 167.342 8.0896 132.41C12.9868 112.215 17.3631 94.858 17.9883 93.7664C19.8638 90.0548 24.3443 87.3258 28.5122 87.3258C31.8465 87.3258 37.1605 89.8365 54.1446 99.5521C66.023 106.211 76.5469 112.215 77.4847 112.87C78.4225 113.416 79.4645 113.743 79.7771 113.416C80.298 112.87 87.696 56.9784 87.696 53.8126C87.696 50.8652 93.531 45.8437 96.9695 45.8437C99.0535 45.8437 109.89 50.9744 126.77 59.9258C141.357 67.5672 153.548 73.6804 153.861 73.3529C154.174 73.0254 154.382 71.1696 154.382 69.2047C154.382 58.1791 162.092 11.8939 164.802 6.65407C165.323 5.45327 167.094 3.48833 168.553 2.28753C173.242 -1.53319 178.035 -0.769042 190.538 6.10825C196.79 9.49231 207.627 15.4963 214.816 19.317C242.532 34.4907 248.993 38.2023 250.347 39.9489C252.64 42.8963 252.119 49.6644 249.305 52.8301C245.658 56.8692 240.24 56.6509 232.217 51.9569C226.486 48.7911 183.14 25.1027 181.369 24.2294C179.598 23.356 174.805 53.9218 173.033 77.2827C171.574 97.2596 170.637 99.7704 164.281 101.08C161.259 101.626 158.654 100.535 144.275 92.4565C118.747 78.1561 106.243 71.8246 105.409 72.8071C104.993 73.2437 103.117 86.0158 101.346 100.971C99.5744 116.036 97.5947 130.009 97.0737 132.192C95.9275 136.668 93.531 139.288 89.6758 140.27C86.7582 141.034 83.2155 139.178 48.6222 119.747C40.599 115.162 33.7221 111.778 33.4095 112.215C33.0969 112.652 29.5542 126.515 25.5947 142.999C19.5513 168.762 18.0925 173.456 15.696 176.076C12.6743 179.241 7.56865 180.005 4.02596 177.822Z" fill="#FED878"/>
</svg>
