<svg width="182" height="120" viewBox="0 0 182 120" fill="none" xmlns="http://www.w3.org/2000/svg">
<path id="Vector" d="M97.6177 0.860271C97.6942 0.87232 97.7708 0.884363 97.8474 0.896414C101.306 1.46315 104.959 2.50959 109.017 4.08018C111.283 4.95901 113.645 6.08313 116.239 7.51879C121.133 10.2205 126.25 13.429 131.888 17.3201C139.887 22.8406 147.506 29.065 154.533 35.8083C162.763 43.7066 170.104 51.9142 176.349 60.2077C177.524 61.8245 178.363 63.5848 178.841 65.4624C178.995 65.7674 179.139 66.0597 179.28 66.3401L179.374 66.5289C180.161 68.1183 180.539 69.9522 180.878 71.5722L180.973 72.0363C181.082 72.5587 181.141 73.0004 181.163 73.4306C181.227 74.8444 181.194 76.4396 181.067 78.177C181.042 78.5493 180.987 78.9337 180.905 79.3138C180.571 80.8617 180.064 82.4102 179.565 83.8703C179.315 84.6058 178.969 85.3431 178.506 86.1125L178.131 86.7498C177.322 88.116 176.411 89.6684 175.291 90.9409C173.148 93.3775 171.094 95.1767 169.013 96.4327C166.708 97.8276 164.182 99.2382 161.373 100.065C158.897 100.799 155.966 101.584 152.978 101.872C150.087 102.147 147.108 102.021 144.322 101.84C142.68 101.734 140.988 101.512 139.144 101.155C133.634 100.091 128.248 98.306 123.038 96.5766C121.2 95.9673 119.292 95.3359 117.423 94.7497C113.522 93.6755 110.014 93.0336 106.721 92.7963C103.578 92.8576 100.334 93.2399 97.0776 93.9179C92.6103 95.1633 88.0679 96.9585 83.5626 99.2649C81.9131 100.201 80.4333 101.091 79.08 101.962C77.627 102.896 76.1871 103.854 74.7471 104.812C72.5558 106.27 70.2903 107.772 68.005 109.187C65.4715 110.753 62.6242 112.355 59.2911 114.088C57.1723 115.192 55.2191 116.064 53.317 116.752C50.3268 117.837 47.1541 118.658 43.8805 119.193C42.8214 119.368 41.7626 119.471 40.7416 119.513C38.4518 119.602 36.1617 119.55 33.945 119.353C32.8727 119.257 31.796 119.082 30.7423 118.832C28.1167 118.206 26.0255 117.568 24.1572 116.83C23.1861 116.447 22.2343 115.977 21.3201 115.446L21.0483 115.285C19.2675 114.241 17.42 113.159 15.7534 111.852C14.9752 111.241 14.2181 110.566 13.5026 109.842L13.1737 109.509C11.772 108.087 10.3225 106.612 9.06375 104.994C8.4302 104.175 7.82802 103.3 7.2811 102.394C5.94334 100.174 4.93847 98.3309 4.12938 96.5977C2.75718 93.6697 2.01424 90.5544 1.29492 87.5382L1.2439 87.328C0.751378 85.2572 0.484235 83.1432 0.454049 81.0552C0.404228 77.6671 0.461051 73.6726 1.24967 69.7651C1.94745 66.2924 3.01916 62.6878 4.43024 59.0635C5.32579 56.7562 6.45482 54.3903 7.78419 52.0334C9.64876 48.7331 11.6403 45.5876 13.7122 42.6794C16.3094 39.034 19.2563 35.5166 22.471 32.2211C26.7477 27.8405 30.8286 24.1702 34.9539 21.0011C38.486 18.289 42.2395 15.8081 46.1186 13.6335C50.1825 11.3531 55.5829 8.45203 61.3407 6.23606C66.5614 4.22757 72.307 2.58807 78.4067 1.36924C81.1785 0.817153 83.7411 0.490416 86.2355 0.383178C88.8373 0.270379 91.4181 0.362034 93.8216 0.476322C95.1067 0.538166 96.3806 0.671237 97.6059 0.864035L97.6177 0.860271ZM141.116 99.2415C142.281 99.4249 143.383 99.5477 144.459 99.616C147.578 99.8148 150.183 99.899 152.766 99.6541C155.566 99.3872 158.369 98.6323 160.745 97.928C163.314 97.1699 165.686 95.8419 167.867 94.523C169.75 93.3819 171.63 91.7293 173.629 89.4664C174.611 88.352 175.43 86.9592 176.225 85.6132L176.607 84.9658C176.988 84.3294 177.272 83.734 177.471 83.1476C177.943 81.7508 178.434 80.2671 178.737 78.838C178.799 78.5557 178.837 78.2754 178.857 78.0034C178.978 76.3491 179.007 74.8433 178.947 73.5143C178.934 73.209 178.89 72.882 178.807 72.4815L178.707 72.011C178.397 70.5248 178.047 68.8356 177.388 67.4968L177.295 67.308C177.141 67.003 176.985 66.6753 176.813 66.3449C176.774 66.2714 176.747 66.1942 176.726 66.1123C176.318 64.4702 175.591 62.9241 174.573 61.5229C168.406 53.3372 161.146 45.2209 152.999 37.4029C146.054 30.74 138.529 24.5977 130.627 19.1374C125.05 15.2895 119.994 12.1188 115.167 9.45016C112.66 8.06749 110.387 6.98538 108.216 6.13848C104.307 4.61938 100.799 3.61815 97.4932 3.07551C96.2697 2.87175 95.0123 2.74126 93.7272 2.67941C91.3801 2.56277 88.8603 2.47512 86.3432 2.58439C83.9607 2.6924 81.5081 2.9971 78.8508 3.53353C72.8728 4.7266 67.2508 6.3294 62.1435 8.29397C56.5164 10.4631 51.2076 13.3168 47.2116 15.5574C43.424 17.6847 39.7528 20.1055 36.3093 22.753C32.2672 25.8565 28.2641 29.4604 24.0614 33.7628C20.927 36.9755 18.0494 40.4083 15.5179 43.9574C13.49 46.7995 11.5369 49.8781 9.7164 53.1123C8.44083 55.3766 7.35556 57.6428 6.49741 59.8548C5.13264 63.3628 4.09801 66.8386 3.42468 70.1915C2.67977 73.8925 2.62437 77.7358 2.66955 81.0108C2.69654 82.941 2.9394 84.8884 3.39502 86.8018L3.44604 87.012C4.16738 90.0509 4.8536 92.9215 6.12932 95.6434C6.91046 97.3048 7.87559 99.0795 9.17275 101.238C9.67531 102.069 10.2213 102.874 10.8042 103.622C11.9837 105.139 13.3846 106.566 14.7431 107.943L15.0711 108.281C15.7187 108.938 16.4069 109.552 17.1109 110.101C18.6628 111.316 20.4436 112.36 22.1631 113.366L22.4349 113.527C23.2511 114.004 24.0996 114.418 24.9702 114.763C26.7325 115.461 28.7279 116.067 31.2504 116.672C32.1956 116.899 33.1629 117.057 34.136 117.143C36.2588 117.331 38.4532 117.384 40.6529 117.298C41.5838 117.259 42.5517 117.164 43.5244 117.003C46.6653 116.492 49.7044 115.701 52.5639 114.663C54.3716 114.004 56.2405 113.17 58.2732 112.114C61.5574 110.407 64.3567 108.826 66.8458 107.292C69.0995 105.9 71.3468 104.406 73.5254 102.958C74.9717 101.995 76.4235 101.033 77.8836 100.089C79.2686 99.1956 80.7856 98.2832 82.5149 97.3032C87.2086 94.9029 91.9071 93.0425 96.526 91.7591C96.5496 91.7516 96.5724 91.7496 96.596 91.742C100.016 91.0225 103.43 90.6276 106.736 90.5638C106.77 90.5635 106.804 90.5632 106.837 90.5684C110.29 90.8142 113.957 91.4811 118.057 92.6091C119.986 93.2102 121.898 93.8479 123.747 94.4589C128.887 96.1662 134.204 97.9293 139.573 98.9651C140.107 99.0659 140.624 99.1586 141.133 99.2386L141.116 99.2415Z" fill="white"/>
</svg>
