<svg width="38" height="24" viewBox="0 0 38 24" fill="none" xmlns="http://www.w3.org/2000/svg">
<g id="Vector">
<path d="M14.7241 23.5676C14.6266 23.5939 14.5258 23.6071 14.4166 23.6155C13.6717 23.6414 13.0486 23.0522 13.0314 22.3066L12.7236 12.9863L12.6548 10.901L12.3681 2.21889C12.3426 1.46841 12.9292 0.847144 13.6677 0.823065C13.7021 0.821872 13.7362 0.82199 13.7701 0.823375C14.4689 0.851977 15.0365 1.42082 15.053 2.13208L15.0869 3.16005L15.7161 22.2198C15.7398 22.8585 15.3103 23.4163 14.7193 23.5759L14.7241 23.5676Z" fill="white"/>
<path d="M37.003 20.7296C36.9381 20.7472 36.8731 20.7647 36.8112 20.7674C36.0754 20.8539 35.4044 20.3198 35.3187 19.5785L33.2846 1.9017C33.1989 1.16046 33.7227 0.486062 34.465 0.397834C35.2007 0.31136 35.8719 0.845457 35.9576 1.5867L37.9915 19.2635C38.0663 19.9376 37.6395 20.5578 37.003 20.7296Z" fill="white"/>
<path fill-rule="evenodd" clip-rule="evenodd" d="M13.0115 22.389C13.3519 22.6256 13.764 22.6896 14.1332 22.5911L14.1305 22.5918L14.1359 22.5903L14.1332 22.5911C14.4245 22.5118 14.696 22.3332 14.8818 22.0663C15.3104 21.4527 15.169 20.6073 14.56 20.1756L3.58692 12.3391L15.0869 3.16005L15.053 2.13208C15.0365 1.42082 14.4689 0.851977 13.7701 0.823375C13.6544 0.870696 13.5434 0.935261 13.4409 1.01753L0.508888 11.3399C0.175676 11.6052 -0.00840437 12.0125 0.000294924 12.4379C0.0154891 12.8616 0.226016 13.2606 0.569319 13.5045L13.0115 22.389Z" fill="white"/>
<path fill-rule="evenodd" clip-rule="evenodd" d="M35.1313 12.3289C35.2274 12.324 35.3283 12.3107 35.4192 12.2862C36.0167 12.1248 36.438 11.5623 36.4126 10.917C36.3806 10.1682 35.7528 9.5874 35.0096 9.61978C25.7117 10.0287 19.3503 10.0001 13.5277 10.5595C13.1926 10.5644 12.8876 10.6928 12.6548 10.901L12.7236 12.9863C12.9563 13.1682 13.2494 13.2747 13.5662 13.27C24.808 12.5001 24.6206 12.7909 35.1313 12.3289Z" fill="white"/>
</g>
</svg>
