<svg width="80" height="36" viewBox="0 0 80 36" fill="none" xmlns="http://www.w3.org/2000/svg">
<g id="button_back">
<g id="Vector">
<path d="M18.838 29.5675C18.7398 29.5938 18.6382 29.607 18.5282 29.6154C17.7775 29.6413 17.1496 29.0521 17.1322 28.3064L16.8221 18.9862L16.7527 16.9009L16.4638 8.21875C16.4381 7.46827 17.0293 6.84701 17.7734 6.82293C17.8081 6.82174 17.8425 6.82185 17.8766 6.82324C18.5808 6.85184 19.1528 7.42068 19.1694 8.13194L19.2036 9.15992L19.8377 28.2196C19.8616 28.8584 19.4288 29.4162 18.8332 29.5758L18.838 29.5675Z" fill="white"/>
<path d="M62.493 26.7248C62.4275 26.7423 62.3621 26.7598 62.2996 26.7625C61.5582 26.849 60.882 26.3149 60.7956 25.5737L58.7458 7.89684C58.6595 7.1556 59.1873 6.4812 59.9353 6.39297C60.6768 6.3065 61.3531 6.84059 61.4394 7.58184L63.4891 25.2587C63.5645 25.9327 63.1344 26.5529 62.493 26.7248Z" fill="white"/>
<path fill-rule="evenodd" clip-rule="evenodd" d="M17.1122 28.3889C17.4552 28.6255 17.8705 28.6894 18.2426 28.5909C18.2417 28.5912 18.2407 28.5914 18.2398 28.5917L18.2453 28.5902C18.2444 28.5904 18.2435 28.5907 18.2426 28.5909C18.5361 28.5116 18.8097 28.3331 18.997 28.0662C19.4288 27.4526 19.2864 26.6072 18.6727 26.1755L7.61467 18.3389L19.2036 9.15992L19.1694 8.13194C19.1528 7.42068 18.5808 6.85184 17.8766 6.82324C17.76 6.87056 17.6482 6.93513 17.5449 7.01739L4.51283 17.3397C4.17704 17.605 3.99153 18.0124 4.0003 18.4378C4.01561 18.8615 4.22776 19.2605 4.57372 19.5044L17.1122 28.3889Z" fill="white"/>
<path fill-rule="evenodd" clip-rule="evenodd" d="M60.6068 18.324C60.7037 18.3191 60.8053 18.3059 60.8969 18.2813C61.4991 18.12 61.9236 17.5574 61.898 16.9121C61.8658 16.1634 61.2331 15.5825 60.4842 15.6149C43.4356 16.3589 41.2543 16.4784 39.0736 16.4702C36.8914 16.4619 34.7097 16.3258 17.6323 16.5593C17.2947 16.5643 16.9873 16.6927 16.7527 16.9009L16.8221 18.9862C17.0566 19.168 17.3519 19.2746 17.6712 19.2699C34.7625 19.0361 36.9582 19.172 39.1543 19.18C41.349 19.188 43.5442 19.0682 60.6068 18.324Z" fill="white"/>
</g>
</g>
</svg>
