<svg xmlns="http://www.w3.org/2000/svg" width="264" height="212" viewBox="0 0 264 212" fill="none">
<path d="M262.794 91.7341C263.346 92.0921 263.677 92.7413 263.595 93.4401C261.048 114.606 253.741 134.37 245.996 155.301C239.487 172.902 232.76 191.103 229.117 210.234C229.013 210.77 228.673 211.228 228.193 211.478C227.713 211.728 227.139 211.748 226.64 211.52C151.93 177.879 76.0552 143.959 1.12584 110.705C0.275301 110.334 -0.13919 109.355 0.175053 108.479C13.235 72.0328 28.7321 36.0445 46.2279 1.50072C46.4443 1.06901 46.82 0.751235 47.2842 0.60736C47.7409 0.458629 48.2348 0.514102 48.6618 0.738044C82.9915 19.2088 118.794 35.817 155.079 50.0793C155.999 50.4426 156.443 51.4725 156.085 52.3843C155.727 53.2961 154.692 53.7478 153.78 53.3894C117.929 39.2918 82.5461 22.9348 48.5824 4.73315C31.7405 38.1544 16.7752 72.9303 4.08646 108.134C77.8454 140.872 152.51 174.24 226.074 207.36C229.842 188.755 236.365 171.131 242.673 154.067C250.128 133.912 257.18 114.852 259.853 94.732C239.238 91.4052 203.98 76.6542 184.922 66.9223C184.051 66.4845 183.704 65.4015 184.142 64.5307C184.592 63.6572 185.655 63.3085 186.534 63.7512C205.36 73.3652 242.388 88.819 262.073 91.4572C262.344 91.4957 262.59 91.5912 262.798 91.7267L262.794 91.7341Z" fill="#838383"/>
<path d="M204.621 23.9658C204.688 24.0094 204.748 24.0481 204.805 24.1065C205.448 24.6507 205.613 25.5732 205.211 26.3081C198.355 38.9384 192.343 52.1794 187.348 65.6667C187.004 66.5881 185.98 67.0571 185.058 66.7136C184.136 66.3701 183.667 65.3454 184.01 64.4239C188.171 53.2031 193.023 42.1437 198.481 31.4564C185.306 40.7092 170.992 48.1741 155.831 53.6918C154.913 54.0288 153.886 53.5534 153.554 52.6281C153.221 51.7028 153.691 50.6835 154.617 50.3514C171.864 44.0679 187.997 35.2194 202.563 24.0508C203.171 23.587 203.989 23.5669 204.608 23.9684L204.621 23.9658Z" fill="#838383"/>
</svg>