<svg width="80" height="80" viewBox="0 0 80 80" fill="none" xmlns="http://www.w3.org/2000/svg">
<g id="action=hover" opacity="0.5">
<g id="Polygon 3">
<path d="M22 26.591C22 26.2905 22.1247 25.9957 22.3564 25.7802C22.7186 25.44 23.271 25.3607 23.7223 25.5818L32.6191 29.9021C35.2264 31.1665 38.1781 32.6009 41.1833 32.5442C43.1432 32.5102 45.1031 31.8412 46.9977 31.1948L56.4112 27.9914C57.0288 27.7816 57.7059 28.0878 57.9316 28.6774C58.0088 28.8872 58.0207 29.1083 57.9672 29.3124C58.0028 29.5336 57.9672 29.7717 57.8603 29.9928L41.5218 61.8226C41.3199 62.2138 40.9042 62.4576 40.4468 62.4576C39.9895 62.4576 39.5738 62.2025 39.3838 61.8113L22.1128 27.0729C22.0356 26.9198 22 26.7497 22 26.5853L22 26.591ZM54.7185 30.9737L47.8054 33.3266C45.8277 34.0013 43.5886 34.7611 41.2368 34.8064C37.6377 34.8745 34.2643 33.2359 31.5501 31.9149L25.7595 29.1027L40.4825 58.7099L54.7185 30.968L54.7185 30.9737Z" fill="#838383"/>
<path d="M37.7208 18.1314C37.7208 17.5418 38.1959 17.0485 38.8195 17.0031C39.4728 16.9578 40.043 17.4227 40.0964 18.0464C40.1499 18.67 41.4268 42.6307 41.4268 42.6307C41.4743 43.26 40.9873 43.7987 40.334 43.8497C39.6807 43.8951 39.1105 43.4301 39.0571 42.8064L38.3741 34.3586C38.3741 34.3302 38.3741 34.3019 38.3741 34.2679L37.7208 18.1314Z" fill="#838383"/>
</g>
</g>
</svg>
