<svg width="80" height="80" viewBox="0 0 80 80" fill="none" xmlns="http://www.w3.org/2000/svg">
<g id="scroll" opacity="0.5">
<g id="Polygon 2">
<path d="M22 22.1333C22 21.8328 22.1247 21.538 22.3564 21.3225C22.7186 20.9823 23.271 20.903 23.7223 21.1241L32.6191 25.4444C35.2264 26.7088 38.1781 28.1432 41.1833 28.0865C43.1432 28.0525 45.1031 27.3835 46.9977 26.7371L56.4112 23.5337C57.0288 23.3239 57.7059 23.6301 57.9316 24.2197C58.0088 24.4295 58.0207 24.6506 57.9672 24.8547C58.0028 25.0759 57.9672 25.314 57.8603 25.5351L41.5218 57.365C41.3199 57.7562 40.9042 58 40.4468 58C39.9895 58 39.5738 57.7449 39.3838 57.3536L22.1128 22.6152C22.0356 22.4621 22 22.292 22 22.1276L22 22.1333ZM54.7185 26.516L47.8054 28.8689C45.8277 29.5436 43.5886 30.3034 41.2368 30.3487C37.6377 30.4168 34.2643 28.7782 31.5501 27.4572L25.7595 24.645L40.4825 54.2523L54.7185 26.5103L54.7185 26.516Z" fill="#838383"/>
<path d="M38.3682 29.8101C38.3682 29.2205 38.8433 28.7272 39.4669 28.6818C40.1202 28.6365 40.6903 29.1014 40.7438 29.7251L41.4268 38.173C41.4743 38.8023 40.9873 39.341 40.334 39.392C39.6807 39.4374 39.1105 38.9724 39.0571 38.3487L38.3741 29.9008C38.3741 29.8725 38.3741 29.8442 38.3741 29.8101L38.3682 29.8101Z" fill="#838383"/>
</g>
</g>
</svg>
