<svg xmlns="http://www.w3.org/2000/svg" width="1882" height="614" viewBox="0 0 1882 614" fill="none">
<mask id="path-1-inside-1_31_6575" fill="white">
<path d="M64.26 29.88V135.72H28.98V29.88H0V0H93.24V29.88H64.26Z"/>
<path d="M176.404 85.32L160.564 40.14L144.724 85.32H176.404ZM185.764 112.14H135.364L127.264 135.72H89.6442L141.304 0H179.824L231.484 135.72H193.864L185.764 112.14Z"/>
<path d="M282.201 0V105.84H324.501V135.72H246.921V0H282.201Z"/>
<path d="M378.001 0V105.84H420.301V135.72H342.721V0H378.001Z"/>
<path d="M551.174 29.88V135.72H515.894V29.88H486.914V0H580.154V29.88H551.174Z"/>
<path d="M663.318 85.32L647.478 40.14L631.638 85.32H663.318ZM672.678 112.14H622.278L614.178 135.72H576.558L628.218 0H666.738L718.398 135.72H680.778L672.678 112.14Z"/>
<path d="M769.115 0V105.84H811.415V135.72H733.835V0H769.115Z"/>
<path d="M864.915 0V105.84H907.215V135.72H829.635V0H864.915Z"/>
<path d="M1038.09 29.88V135.72H1002.81V29.88H973.828V0H1067.07V29.88H1038.09Z"/>
<path d="M1150.23 85.32L1134.39 40.14L1118.55 85.32H1150.23ZM1159.59 112.14H1109.19L1101.09 135.72H1063.47L1115.13 0H1153.65L1205.31 135.72H1167.69L1159.59 112.14Z"/>
<path d="M1256.03 0V105.84H1298.33V135.72H1220.75V0H1256.03Z"/>
<path d="M1351.83 0V105.84H1394.13V135.72H1316.55V0H1351.83Z"/>
<path d="M1525 29.88V135.72H1489.72V29.88H1460.74V0H1553.98V29.88H1525Z"/>
<path d="M1637.15 85.32L1621.31 40.14L1605.47 85.32H1637.15ZM1646.51 112.14H1596.11L1588.01 135.72H1550.39L1602.05 0H1640.57L1692.23 135.72H1654.61L1646.51 112.14Z"/>
<path d="M1742.94 0V105.84H1785.24V135.72H1707.66V0H1742.94Z"/>
<path d="M1838.74 0V105.84H1881.04V135.72H1803.46V0H1838.74Z"/>
<path d="M64.26 268.88V374.72H28.98V268.88H0V239H93.24V268.88H64.26Z"/>
<path d="M176.404 324.32L160.564 279.14L144.724 324.32H176.404ZM185.764 351.14H135.364L127.264 374.72H89.6442L141.304 239H179.824L231.484 374.72H193.864L185.764 351.14Z"/>
<path d="M282.201 239V344.84H324.501V374.72H246.921V239H282.201Z"/>
<path d="M378.001 239V344.84H420.301V374.72H342.721V239H378.001Z"/>
<path d="M551.174 268.88V374.72H515.894V268.88H486.914V239H580.154V268.88H551.174Z"/>
<path d="M663.318 324.32L647.478 279.14L631.638 324.32H663.318ZM672.678 351.14H622.278L614.178 374.72H576.558L628.218 239H666.738L718.398 374.72H680.778L672.678 351.14Z"/>
<path d="M769.115 239V344.84H811.415V374.72H733.835V239H769.115Z"/>
<path d="M864.915 239V344.84H907.215V374.72H829.635V239H864.915Z"/>
<path d="M1038.09 268.88V374.72H1002.81V268.88H973.828V239H1067.07V268.88H1038.09Z"/>
<path d="M1150.23 324.32L1134.39 279.14L1118.55 324.32H1150.23ZM1159.59 351.14H1109.19L1101.09 374.72H1063.47L1115.13 239H1153.65L1205.31 374.72H1167.69L1159.59 351.14Z"/>
<path d="M1256.03 239V344.84H1298.33V374.72H1220.75V239H1256.03Z"/>
<path d="M1351.83 239V344.84H1394.13V374.72H1316.55V239H1351.83Z"/>
<path d="M1525 268.88V374.72H1489.72V268.88H1460.74V239H1553.98V268.88H1525Z"/>
<path d="M1637.15 324.32L1621.31 279.14L1605.47 324.32H1637.15ZM1646.51 351.14H1596.11L1588.01 374.72H1550.39L1602.05 239H1640.57L1692.23 374.72H1654.61L1646.51 351.14Z"/>
<path d="M1742.94 239V344.84H1785.24V374.72H1707.66V239H1742.94Z"/>
<path d="M1838.74 239V344.84H1881.04V374.72H1803.46V239H1838.74Z"/>
<path d="M64.26 507.88V613.72H28.98V507.88H0V478H93.24V507.88H64.26Z"/>
<path d="M176.404 563.32L160.564 518.14L144.724 563.32H176.404ZM185.764 590.14H135.364L127.264 613.72H89.6442L141.304 478H179.824L231.484 613.72H193.864L185.764 590.14Z"/>
<path d="M282.201 478V583.84H324.501V613.72H246.921V478H282.201Z"/>
<path d="M378.001 478V583.84H420.301V613.72H342.721V478H378.001Z"/>
<path d="M551.174 507.88V613.72H515.894V507.88H486.914V478H580.154V507.88H551.174Z"/>
<path d="M663.318 563.32L647.478 518.14L631.638 563.32H663.318ZM672.678 590.14H622.278L614.178 613.72H576.558L628.218 478H666.738L718.398 613.72H680.778L672.678 590.14Z"/>
<path d="M769.115 478V583.84H811.415V613.72H733.835V478H769.115Z"/>
<path d="M864.915 478V583.84H907.215V613.72H829.635V478H864.915Z"/>
<path d="M1038.09 507.88V613.72H1002.81V507.88H973.828V478H1067.07V507.88H1038.09Z"/>
<path d="M1150.23 563.32L1134.39 518.14L1118.55 563.32H1150.23ZM1159.59 590.14H1109.19L1101.09 613.72H1063.47L1115.13 478H1153.65L1205.31 613.72H1167.69L1159.59 590.14Z"/>
<path d="M1256.03 478V583.84H1298.33V613.72H1220.75V478H1256.03Z"/>
<path d="M1351.83 478V583.84H1394.13V613.72H1316.55V478H1351.83Z"/>
<path d="M1525 507.88V613.72H1489.72V507.88H1460.74V478H1553.98V507.88H1525Z"/>
<path d="M1637.15 563.32L1621.31 518.14L1605.47 563.32H1637.15ZM1646.51 590.14H1596.11L1588.01 613.72H1550.39L1602.05 478H1640.57L1692.23 613.72H1654.61L1646.51 590.14Z"/>
<path d="M1742.94 478V583.84H1785.24V613.72H1707.66V478H1742.94Z"/>
<path d="M1838.74 478V583.84H1881.04V613.72H1803.46V478H1838.74Z"/>
</mask>
<path d="M64.26 29.88V135.72H28.98V29.88H0V0H93.24V29.88H64.26Z" stroke="white" stroke-width="12" mask="url(#path-1-inside-1_31_6575)"/>
<path d="M176.404 85.32L160.564 40.14L144.724 85.32H176.404ZM185.764 112.14H135.364L127.264 135.72H89.6442L141.304 0H179.824L231.484 135.72H193.864L185.764 112.14Z" stroke="white" stroke-width="12" mask="url(#path-1-inside-1_31_6575)"/>
<path d="M282.201 0V105.84H324.501V135.72H246.921V0H282.201Z" stroke="white" stroke-width="12" mask="url(#path-1-inside-1_31_6575)"/>
<path d="M378.001 0V105.84H420.301V135.72H342.721V0H378.001Z" stroke="white" stroke-width="12" mask="url(#path-1-inside-1_31_6575)"/>
<path d="M551.174 29.88V135.72H515.894V29.88H486.914V0H580.154V29.88H551.174Z" stroke="white" stroke-width="12" mask="url(#path-1-inside-1_31_6575)"/>
<path d="M663.318 85.32L647.478 40.14L631.638 85.32H663.318ZM672.678 112.14H622.278L614.178 135.72H576.558L628.218 0H666.738L718.398 135.72H680.778L672.678 112.14Z" stroke="white" stroke-width="12" mask="url(#path-1-inside-1_31_6575)"/>
<path d="M769.115 0V105.84H811.415V135.72H733.835V0H769.115Z" stroke="white" stroke-width="12" mask="url(#path-1-inside-1_31_6575)"/>
<path d="M864.915 0V105.84H907.215V135.72H829.635V0H864.915Z" stroke="white" stroke-width="12" mask="url(#path-1-inside-1_31_6575)"/>
<path d="M1038.09 29.88V135.72H1002.81V29.88H973.828V0H1067.07V29.88H1038.09Z" stroke="white" stroke-width="12" mask="url(#path-1-inside-1_31_6575)"/>
<path d="M1150.23 85.32L1134.39 40.14L1118.55 85.32H1150.23ZM1159.59 112.14H1109.19L1101.09 135.72H1063.47L1115.13 0H1153.65L1205.31 135.72H1167.69L1159.59 112.14Z" stroke="white" stroke-width="12" mask="url(#path-1-inside-1_31_6575)"/>
<path d="M1256.03 0V105.84H1298.33V135.72H1220.75V0H1256.03Z" stroke="white" stroke-width="12" mask="url(#path-1-inside-1_31_6575)"/>
<path d="M1351.83 0V105.84H1394.13V135.72H1316.55V0H1351.83Z" stroke="white" stroke-width="12" mask="url(#path-1-inside-1_31_6575)"/>
<path d="M1525 29.88V135.72H1489.72V29.88H1460.74V0H1553.98V29.88H1525Z" stroke="white" stroke-width="12" mask="url(#path-1-inside-1_31_6575)"/>
<path d="M1637.15 85.32L1621.31 40.14L1605.47 85.32H1637.15ZM1646.51 112.14H1596.11L1588.01 135.72H1550.39L1602.05 0H1640.57L1692.23 135.72H1654.61L1646.51 112.14Z" stroke="white" stroke-width="12" mask="url(#path-1-inside-1_31_6575)"/>
<path d="M1742.94 0V105.84H1785.24V135.72H1707.66V0H1742.94Z" stroke="white" stroke-width="12" mask="url(#path-1-inside-1_31_6575)"/>
<path d="M1838.74 0V105.84H1881.04V135.72H1803.46V0H1838.74Z" stroke="white" stroke-width="12" mask="url(#path-1-inside-1_31_6575)"/>
<path d="M64.26 268.88V374.72H28.98V268.88H0V239H93.24V268.88H64.26Z" stroke="white" stroke-width="12" mask="url(#path-1-inside-1_31_6575)"/>
<path d="M176.404 324.32L160.564 279.14L144.724 324.32H176.404ZM185.764 351.14H135.364L127.264 374.72H89.6442L141.304 239H179.824L231.484 374.72H193.864L185.764 351.14Z" stroke="white" stroke-width="12" mask="url(#path-1-inside-1_31_6575)"/>
<path d="M282.201 239V344.84H324.501V374.72H246.921V239H282.201Z" stroke="white" stroke-width="12" mask="url(#path-1-inside-1_31_6575)"/>
<path d="M378.001 239V344.84H420.301V374.72H342.721V239H378.001Z" stroke="white" stroke-width="12" mask="url(#path-1-inside-1_31_6575)"/>
<path d="M551.174 268.88V374.72H515.894V268.88H486.914V239H580.154V268.88H551.174Z" stroke="white" stroke-width="12" mask="url(#path-1-inside-1_31_6575)"/>
<path d="M663.318 324.32L647.478 279.14L631.638 324.32H663.318ZM672.678 351.14H622.278L614.178 374.72H576.558L628.218 239H666.738L718.398 374.72H680.778L672.678 351.14Z" stroke="white" stroke-width="12" mask="url(#path-1-inside-1_31_6575)"/>
<path d="M769.115 239V344.84H811.415V374.72H733.835V239H769.115Z" stroke="white" stroke-width="12" mask="url(#path-1-inside-1_31_6575)"/>
<path d="M864.915 239V344.84H907.215V374.72H829.635V239H864.915Z" stroke="white" stroke-width="12" mask="url(#path-1-inside-1_31_6575)"/>
<path d="M1038.09 268.88V374.72H1002.81V268.88H973.828V239H1067.07V268.88H1038.09Z" stroke="white" stroke-width="12" mask="url(#path-1-inside-1_31_6575)"/>
<path d="M1150.23 324.32L1134.39 279.14L1118.55 324.32H1150.23ZM1159.59 351.14H1109.19L1101.09 374.72H1063.47L1115.13 239H1153.65L1205.31 374.72H1167.69L1159.59 351.14Z" stroke="white" stroke-width="12" mask="url(#path-1-inside-1_31_6575)"/>
<path d="M1256.03 239V344.84H1298.33V374.72H1220.75V239H1256.03Z" stroke="white" stroke-width="12" mask="url(#path-1-inside-1_31_6575)"/>
<path d="M1351.83 239V344.84H1394.13V374.72H1316.55V239H1351.83Z" stroke="white" stroke-width="12" mask="url(#path-1-inside-1_31_6575)"/>
<path d="M1525 268.88V374.72H1489.72V268.88H1460.74V239H1553.98V268.88H1525Z" stroke="white" stroke-width="12" mask="url(#path-1-inside-1_31_6575)"/>
<path d="M1637.15 324.32L1621.31 279.14L1605.47 324.32H1637.15ZM1646.51 351.14H1596.11L1588.01 374.72H1550.39L1602.05 239H1640.57L1692.23 374.72H1654.61L1646.51 351.14Z" stroke="white" stroke-width="12" mask="url(#path-1-inside-1_31_6575)"/>
<path d="M1742.94 239V344.84H1785.24V374.72H1707.66V239H1742.94Z" stroke="white" stroke-width="12" mask="url(#path-1-inside-1_31_6575)"/>
<path d="M1838.74 239V344.84H1881.04V374.72H1803.46V239H1838.74Z" stroke="white" stroke-width="12" mask="url(#path-1-inside-1_31_6575)"/>
<path d="M64.26 507.88V613.72H28.98V507.88H0V478H93.24V507.88H64.26Z" stroke="white" stroke-width="12" mask="url(#path-1-inside-1_31_6575)"/>
<path d="M176.404 563.32L160.564 518.14L144.724 563.32H176.404ZM185.764 590.14H135.364L127.264 613.72H89.6442L141.304 478H179.824L231.484 613.72H193.864L185.764 590.14Z" stroke="white" stroke-width="12" mask="url(#path-1-inside-1_31_6575)"/>
<path d="M282.201 478V583.84H324.501V613.72H246.921V478H282.201Z" stroke="white" stroke-width="12" mask="url(#path-1-inside-1_31_6575)"/>
<path d="M378.001 478V583.84H420.301V613.72H342.721V478H378.001Z" stroke="white" stroke-width="12" mask="url(#path-1-inside-1_31_6575)"/>
<path d="M551.174 507.88V613.72H515.894V507.88H486.914V478H580.154V507.88H551.174Z" stroke="white" stroke-width="12" mask="url(#path-1-inside-1_31_6575)"/>
<path d="M663.318 563.32L647.478 518.14L631.638 563.32H663.318ZM672.678 590.14H622.278L614.178 613.72H576.558L628.218 478H666.738L718.398 613.72H680.778L672.678 590.14Z" stroke="white" stroke-width="12" mask="url(#path-1-inside-1_31_6575)"/>
<path d="M769.115 478V583.84H811.415V613.72H733.835V478H769.115Z" stroke="white" stroke-width="12" mask="url(#path-1-inside-1_31_6575)"/>
<path d="M864.915 478V583.84H907.215V613.72H829.635V478H864.915Z" stroke="white" stroke-width="12" mask="url(#path-1-inside-1_31_6575)"/>
<path d="M1038.09 507.88V613.72H1002.81V507.88H973.828V478H1067.07V507.88H1038.09Z" stroke="white" stroke-width="12" mask="url(#path-1-inside-1_31_6575)"/>
<path d="M1150.23 563.32L1134.39 518.14L1118.55 563.32H1150.23ZM1159.59 590.14H1109.19L1101.09 613.72H1063.47L1115.13 478H1153.65L1205.31 613.72H1167.69L1159.59 590.14Z" stroke="white" stroke-width="12" mask="url(#path-1-inside-1_31_6575)"/>
<path d="M1256.03 478V583.84H1298.33V613.72H1220.75V478H1256.03Z" stroke="white" stroke-width="12" mask="url(#path-1-inside-1_31_6575)"/>
<path d="M1351.83 478V583.84H1394.13V613.72H1316.55V478H1351.83Z" stroke="white" stroke-width="12" mask="url(#path-1-inside-1_31_6575)"/>
<path d="M1525 507.88V613.72H1489.72V507.88H1460.74V478H1553.98V507.88H1525Z" stroke="white" stroke-width="12" mask="url(#path-1-inside-1_31_6575)"/>
<path d="M1637.15 563.32L1621.31 518.14L1605.47 563.32H1637.15ZM1646.51 590.14H1596.11L1588.01 613.72H1550.39L1602.05 478H1640.57L1692.23 613.72H1654.61L1646.51 590.14Z" stroke="white" stroke-width="12" mask="url(#path-1-inside-1_31_6575)"/>
<path d="M1742.94 478V583.84H1785.24V613.72H1707.66V478H1742.94Z" stroke="white" stroke-width="12" mask="url(#path-1-inside-1_31_6575)"/>
<path d="M1838.74 478V583.84H1881.04V613.72H1803.46V478H1838.74Z" stroke="white" stroke-width="12" mask="url(#path-1-inside-1_31_6575)"/>
</svg>